<svg xmlns="http://www.w3.org/2000/svg" xmlns:xlink="http://www.w3.org/1999/xlink" width="50" zoomAndPan="magnify" viewBox="0 0 37.5 37.499999" height="50" preserveAspectRatio="xMidYMid meet" version="1.0"><defs><g/><clipPath id="46af72ed5d"><path d="M 16 0.515625 L 20 0.515625 L 20 8 L 16 8 Z M 16 0.515625 " clip-rule="nonzero"/></clipPath><clipPath id="159e512e1c"><path d="M 4 7 L 32 7 L 32 36.785156 L 4 36.785156 Z M 4 7 " clip-rule="nonzero"/></clipPath><clipPath id="853dcb9394"><path d="M 4 16 L 32 16 L 32 36.785156 L 4 36.785156 Z M 4 16 " clip-rule="nonzero"/></clipPath></defs><g clip-path="url(#46af72ed5d)"><path fill="#58b835" d="M 18.09375 7.621094 C 18.09375 7.621094 19.09375 4.441406 16.847656 1.53125 L 19.359375 0.515625 C 19.359375 0.515625 20.09375 5.066406 18.84375 7.664062 L 18.09375 7.621094 " fill-opacity="1" fill-rule="nonzero"/></g><g clip-path="url(#159e512e1c)"><path fill="#e62138" d="M 17.695312 7.257812 C 17.695312 7.257812 8.617188 6.355469 5.730469 11.539062 C 2.84375 16.71875 5.554688 23.730469 8.96875 28.648438 C 12.382812 33.566406 15.296875 35.890625 18.519531 36.335938 C 21.738281 36.785156 24.914062 33.792969 28.1875 27.25 C 31.457031 20.710938 33.136719 15.027344 30.867188 11.238281 C 28.597656 7.453125 23.328125 6.925781 17.695312 7.257812 " fill-opacity="1" fill-rule="nonzero"/></g><path fill="#4fa036" d="M 16.945312 6.4375 C 16.945312 6.4375 13.945312 4.035156 10.324219 4.539062 L 9.199219 4.472656 C 9.199219 4.472656 13.445312 7.453125 16.945312 6.4375 " fill-opacity="1" fill-rule="nonzero"/><path fill="#4fa036" d="M 19.121094 7.144531 C 19.121094 7.144531 17.742188 4.15625 15.023438 3.78125 L 14.25 3.453125 C 14.25 3.453125 16.335938 7.277344 19.121094 7.144531 " fill-opacity="1" fill-rule="nonzero"/><path fill="#4fa036" d="M 20.929688 6.3125 C 20.929688 6.3125 23.941406 4.679688 27.441406 5.558594 L 29.566406 6.3125 C 29.566406 6.3125 24.039062 7.703125 20.929688 6.3125 " fill-opacity="1" fill-rule="nonzero"/><path fill="#4fa036" d="M 18.554688 6.835938 C 18.554688 6.835938 20.300781 4.425781 23.292969 4.226562 L 25.1875 4.308594 C 25.1875 4.308594 21.425781 7.230469 18.554688 6.835938 " fill-opacity="1" fill-rule="nonzero"/><path fill="#58b835" d="M 13.695312 8.84375 C 13.695312 8.84375 11.449219 9.730469 10.699219 12.136719 C 9.949219 14.539062 10.699219 14.917969 10.699219 14.917969 C 10.699219 14.917969 14.320312 11.753906 15.570312 11.25 C 16.820312 10.742188 18.210938 9.730469 18.210938 9.730469 C 18.210938 9.730469 20.070312 10.742188 21.566406 11.882812 C 23.066406 13.019531 25.316406 14.160156 25.566406 14.917969 C 25.816406 15.679688 26.441406 13.652344 25.566406 11.882812 C 24.691406 10.109375 23.191406 8.84375 23.191406 8.84375 C 23.191406 8.84375 27.566406 9.730469 28.941406 11.25 C 30.3125 12.769531 31.492188 12.617188 31.492188 12.617188 C 31.492188 12.617188 30.5625 8.292969 28.191406 7.175781 C 25.816406 6.058594 23.527344 5.398438 20.929688 6.3125 C 20.929688 6.3125 18.570312 7.070312 16.945312 6.4375 C 15.320312 5.804688 13.195312 5.578125 11.199219 5.882812 C 9.199219 6.1875 7.574219 6.945312 5.949219 8.589844 C 5.949219 8.589844 10.949219 7.578125 13.695312 8.84375 " fill-opacity="1" fill-rule="nonzero"/><g clip-path="url(#853dcb9394)"><path fill="#dd2529" d="M 28.1875 27.25 C 30.269531 23.085938 31.703125 19.269531 31.886719 16.066406 C 31.695312 16.234375 31.730469 16.632812 31.492188 17.203125 C 30.1875 20.363281 29.191406 22.070312 27.441406 25.109375 C 25.691406 28.144531 22.058594 29.226562 19.121094 29.222656 C 14.601562 29.214844 12.445312 28.335938 9.199219 24.917969 C 6.617188 22.203125 4.640625 17.46875 4.539062 17.226562 C 4.753906 21.191406 6.699219 25.378906 8.96875 28.648438 C 12.382812 33.566406 15.296875 35.890625 18.519531 36.335938 C 21.738281 36.785156 24.914062 33.792969 28.1875 27.25 " fill-opacity="1" fill-rule="nonzero"/></g><path fill="#dd2529" d="M 22.941406 20.660156 C 22.941406 21.277344 22.703125 21.777344 22.40625 21.777344 C 22.109375 21.777344 21.871094 21.277344 21.871094 20.660156 C 21.871094 20.039062 22.109375 19.539062 22.40625 19.539062 C 22.703125 19.539062 22.941406 20.039062 22.941406 20.660156 " fill-opacity="1" fill-rule="nonzero"/><path fill="#f4d1b1" d="M 22.71875 20.382812 C 22.71875 20.777344 22.578125 21.097656 22.40625 21.097656 C 22.234375 21.097656 22.09375 20.777344 22.09375 20.382812 C 22.09375 19.984375 22.234375 19.664062 22.40625 19.664062 C 22.578125 19.664062 22.71875 19.984375 22.71875 20.382812 " fill-opacity="1" fill-rule="nonzero"/><path fill="#dd2529" d="M 26.304688 18.640625 C 26.4375 19.242188 26.316406 19.785156 26.027344 19.851562 C 25.738281 19.917969 25.394531 19.484375 25.257812 18.878906 C 25.121094 18.277344 25.246094 17.734375 25.535156 17.667969 C 25.824219 17.601562 26.167969 18.035156 26.304688 18.640625 " fill-opacity="1" fill-rule="nonzero"/><path fill="#f4d1b1" d="M 26.023438 18.417969 C 26.109375 18.804688 26.042969 19.148438 25.875 19.1875 C 25.707031 19.226562 25.5 18.945312 25.414062 18.558594 C 25.328125 18.175781 25.394531 17.832031 25.5625 17.792969 C 25.730469 17.753906 25.9375 18.035156 26.023438 18.417969 " fill-opacity="1" fill-rule="nonzero"/><path fill="#dd2529" d="M 18.167969 19.324219 C 18.121094 19.941406 17.84375 20.421875 17.550781 20.398438 C 17.253906 20.375 17.054688 19.859375 17.101562 19.242188 C 17.148438 18.625 17.425781 18.144531 17.71875 18.167969 C 18.015625 18.191406 18.214844 18.707031 18.167969 19.324219 " fill-opacity="1" fill-rule="nonzero"/><path fill="#f4d1b1" d="M 17.933594 18.988281 C 17.953125 19.382812 17.832031 19.710938 17.660156 19.71875 C 17.488281 19.730469 17.328125 19.417969 17.308594 19.023438 C 17.289062 18.628906 17.410156 18.300781 17.582031 18.292969 C 17.753906 18.28125 17.910156 18.59375 17.933594 18.988281 " fill-opacity="1" fill-rule="nonzero"/><path fill="#dd2529" d="M 14.339844 18.898438 C 14.1875 19.496094 13.828125 19.917969 13.542969 19.84375 C 13.257812 19.769531 13.148438 19.222656 13.304688 18.625 C 13.457031 18.023438 13.8125 17.601562 14.101562 17.675781 C 14.386719 17.753906 14.492188 18.296875 14.339844 18.898438 " fill-opacity="1" fill-rule="nonzero"/><path fill="#f4d1b1" d="M 14.164062 18.523438 C 14.117188 18.917969 13.9375 19.21875 13.769531 19.195312 C 13.597656 19.171875 13.496094 18.835938 13.546875 18.445312 C 13.59375 18.054688 13.773438 17.753906 13.941406 17.773438 C 14.113281 17.796875 14.214844 18.132812 14.164062 18.523438 " fill-opacity="1" fill-rule="nonzero"/><path fill="#dd2529" d="M 10.871094 17.535156 C 10.714844 18.132812 10.359375 18.554688 10.074219 18.480469 C 9.785156 18.40625 9.679688 17.859375 9.832031 17.261719 C 9.988281 16.664062 10.34375 16.238281 10.628906 16.3125 C 10.917969 16.390625 11.023438 16.9375 10.871094 17.535156 " fill-opacity="1" fill-rule="nonzero"/><path fill="#f4d1b1" d="M 10.695312 17.160156 C 10.648438 17.554688 10.46875 17.855469 10.296875 17.832031 C 10.125 17.8125 10.027344 17.476562 10.074219 17.082031 C 10.125 16.691406 10.300781 16.390625 10.472656 16.410156 C 10.644531 16.433594 10.742188 16.769531 10.695312 17.160156 " fill-opacity="1" fill-rule="nonzero"/><path fill="#dd2529" d="M 8.257812 13.96875 C 8.035156 14.542969 7.628906 14.921875 7.351562 14.8125 C 7.078125 14.703125 7.035156 14.148438 7.261719 13.570312 C 7.484375 12.996094 7.890625 12.617188 8.164062 12.730469 C 8.441406 12.839844 8.480469 13.394531 8.257812 13.96875 " fill-opacity="1" fill-rule="nonzero"/><path fill="#f4d1b1" d="M 8.128906 13.578125 C 8.035156 13.960938 7.820312 14.238281 7.652344 14.195312 C 7.488281 14.152344 7.429688 13.808594 7.523438 13.425781 C 7.617188 13.039062 7.828125 12.765625 7.996094 12.808594 C 8.164062 12.847656 8.222656 13.195312 8.128906 13.578125 " fill-opacity="1" fill-rule="nonzero"/><path fill="#dd2529" d="M 6.316406 18.433594 C 6.234375 19.046875 5.929688 19.507812 5.636719 19.46875 C 5.34375 19.425781 5.171875 18.894531 5.257812 18.285156 C 5.339844 17.671875 5.644531 17.207031 5.9375 17.25 C 6.230469 17.289062 6.402344 17.820312 6.316406 18.433594 " fill-opacity="1" fill-rule="nonzero"/><path fill="#f4d1b1" d="M 6.101562 18.082031 C 6.097656 18.476562 5.957031 18.796875 5.785156 18.796875 C 5.613281 18.796875 5.472656 18.472656 5.476562 18.078125 C 5.480469 17.683594 5.621094 17.363281 5.792969 17.363281 C 5.964844 17.367188 6.105469 17.6875 6.101562 18.082031 " fill-opacity="1" fill-rule="nonzero"/><path fill="#dd2529" d="M 8.695312 20.851562 C 8.613281 21.464844 8.308594 21.925781 8.015625 21.886719 C 7.722656 21.84375 7.550781 21.316406 7.636719 20.703125 C 7.71875 20.089844 8.023438 19.625 8.316406 19.667969 C 8.609375 19.710938 8.78125 20.238281 8.695312 20.851562 " fill-opacity="1" fill-rule="nonzero"/><path fill="#f4d1b1" d="M 8.480469 20.5 C 8.476562 20.898438 8.335938 21.214844 8.164062 21.214844 C 7.992188 21.214844 7.851562 20.894531 7.855469 20.496094 C 7.859375 20.101562 8 19.78125 8.171875 19.785156 C 8.34375 19.785156 8.484375 20.105469 8.480469 20.5 " fill-opacity="1" fill-rule="nonzero"/><path fill="#dd2529" d="M 12.195312 23.351562 C 12.113281 23.964844 11.804688 24.425781 11.511719 24.386719 C 11.21875 24.34375 11.050781 23.816406 11.132812 23.203125 C 11.21875 22.589844 11.523438 22.125 11.816406 22.167969 C 12.109375 22.207031 12.277344 22.738281 12.195312 23.351562 " fill-opacity="1" fill-rule="nonzero"/><path fill="#f4d1b1" d="M 11.976562 23 C 11.976562 23.398438 11.832031 23.714844 11.660156 23.714844 C 11.488281 23.714844 11.351562 23.394531 11.355469 22.996094 C 11.355469 22.601562 11.5 22.28125 11.671875 22.285156 C 11.84375 22.285156 11.980469 22.605469 11.976562 23 " fill-opacity="1" fill-rule="nonzero"/><path fill="#dd2529" d="M 16.726562 14.488281 C 16.640625 15.101562 16.335938 15.5625 16.042969 15.523438 C 15.75 15.480469 15.582031 14.953125 15.664062 14.339844 C 15.75 13.726562 16.054688 13.261719 16.347656 13.304688 C 16.640625 13.34375 16.808594 13.875 16.726562 14.488281 " fill-opacity="1" fill-rule="nonzero"/><path fill="#f4d1b1" d="M 16.511719 14.136719 C 16.507812 14.53125 16.363281 14.851562 16.191406 14.851562 C 16.019531 14.851562 15.882812 14.527344 15.886719 14.132812 C 15.886719 13.738281 16.03125 13.417969 16.203125 13.417969 C 16.375 13.421875 16.511719 13.742188 16.511719 14.136719 " fill-opacity="1" fill-rule="nonzero"/><path fill="#dd2529" d="M 21.855469 15.09375 C 21.84375 15.710938 21.59375 16.207031 21.300781 16.203125 C 21.003906 16.199219 20.773438 15.691406 20.785156 15.074219 C 20.792969 14.457031 21.042969 13.957031 21.339844 13.964844 C 21.632812 13.96875 21.867188 14.472656 21.855469 15.09375 " fill-opacity="1" fill-rule="nonzero"/><path fill="#f4d1b1" d="M 21.597656 14.773438 C 21.644531 15.164062 21.539062 15.5 21.367188 15.519531 C 21.195312 15.539062 21.023438 15.234375 20.976562 14.84375 C 20.933594 14.449219 21.039062 14.117188 21.207031 14.097656 C 21.378906 14.078125 21.554688 14.378906 21.597656 14.773438 " fill-opacity="1" fill-rule="nonzero"/><path fill="#dd2529" d="M 28.09375 13.390625 C 28.21875 13.992188 28.085938 14.535156 27.796875 14.597656 C 27.507812 14.660156 27.171875 14.21875 27.042969 13.613281 C 26.917969 13.007812 27.050781 12.46875 27.339844 12.40625 C 27.628906 12.34375 27.964844 12.785156 28.09375 13.390625 " fill-opacity="1" fill-rule="nonzero"/><path fill="#f4d1b1" d="M 27.773438 13.132812 C 27.902344 13.507812 27.875 13.855469 27.714844 13.914062 C 27.550781 13.972656 27.3125 13.71875 27.183594 13.34375 C 27.054688 12.972656 27.078125 12.625 27.242188 12.566406 C 27.40625 12.507812 27.640625 12.761719 27.773438 13.132812 " fill-opacity="1" fill-rule="nonzero"/><path fill="#dd2529" d="M 30.078125 19.210938 C 30.023438 19.824219 29.742188 20.304688 29.449219 20.277344 C 29.152344 20.253906 28.957031 19.734375 29.007812 19.117188 C 29.0625 18.5 29.34375 18.023438 29.636719 18.046875 C 29.933594 18.074219 30.128906 18.59375 30.078125 19.210938 " fill-opacity="1" fill-rule="nonzero"/><path fill="#f4d1b1" d="M 29.84375 18.871094 C 29.859375 19.265625 29.734375 19.59375 29.5625 19.601562 C 29.390625 19.609375 29.234375 19.296875 29.21875 18.898438 C 29.199219 18.503906 29.328125 18.179688 29.5 18.171875 C 29.671875 18.164062 29.824219 18.476562 29.84375 18.871094 " fill-opacity="1" fill-rule="nonzero"/><path fill="#dd2529" d="M 28.363281 22.941406 C 28.308594 23.558594 28.027344 24.035156 27.734375 24.011719 C 27.4375 23.984375 27.242188 23.464844 27.292969 22.847656 C 27.347656 22.230469 27.628906 21.753906 27.921875 21.777344 C 28.21875 21.804688 28.414062 22.324219 28.363281 22.941406 " fill-opacity="1" fill-rule="nonzero"/><path fill="#f4d1b1" d="M 28.128906 22.601562 C 28.144531 23 28.019531 23.324219 27.847656 23.332031 C 27.675781 23.339844 27.519531 23.027344 27.503906 22.632812 C 27.484375 22.238281 27.613281 21.910156 27.785156 21.902344 C 27.957031 21.894531 28.109375 22.207031 28.128906 22.601562 " fill-opacity="1" fill-rule="nonzero"/><path fill="#dd2529" d="M 20.164062 23.542969 C 20.113281 24.160156 19.832031 24.636719 19.539062 24.613281 C 19.242188 24.585938 19.046875 24.066406 19.097656 23.449219 C 19.152344 22.832031 19.433594 22.355469 19.726562 22.378906 C 20.023438 22.40625 20.21875 22.925781 20.164062 23.542969 " fill-opacity="1" fill-rule="nonzero"/><path fill="#f4d1b1" d="M 19.933594 23.203125 C 19.949219 23.601562 19.824219 23.925781 19.652344 23.933594 C 19.480469 23.941406 19.324219 23.628906 19.308594 23.234375 C 19.289062 22.839844 19.414062 22.511719 19.589844 22.503906 C 19.761719 22.496094 19.914062 22.808594 19.933594 23.203125 " fill-opacity="1" fill-rule="nonzero"/><path fill="#dd2529" d="M 16.066406 24.796875 C 16.015625 25.414062 15.734375 25.894531 15.441406 25.867188 C 15.144531 25.839844 14.949219 25.320312 15 24.707031 C 15.054688 24.089844 15.335938 23.609375 15.628906 23.636719 C 15.925781 23.664062 16.121094 24.183594 16.066406 24.796875 " fill-opacity="1" fill-rule="nonzero"/><path fill="#f4d1b1" d="M 15.832031 24.460938 C 15.851562 24.855469 15.726562 25.183594 15.554688 25.191406 C 15.382812 25.199219 15.226562 24.882812 15.210938 24.488281 C 15.191406 24.09375 15.316406 23.769531 15.488281 23.761719 C 15.664062 23.75 15.816406 24.066406 15.832031 24.460938 " fill-opacity="1" fill-rule="nonzero"/><path fill="#dd2529" d="M 13.519531 27.765625 C 13.617188 28.375 13.460938 28.910156 13.171875 28.957031 C 12.878906 29.007812 12.5625 28.550781 12.460938 27.941406 C 12.363281 27.332031 12.519531 26.796875 12.8125 26.746094 C 13.101562 26.699219 13.421875 27.15625 13.519531 27.765625 " fill-opacity="1" fill-rule="nonzero"/><path fill="#f4d1b1" d="M 13.210938 27.496094 C 13.324219 27.875 13.28125 28.222656 13.117188 28.273438 C 12.949219 28.324219 12.726562 28.058594 12.613281 27.679688 C 12.5 27.300781 12.542969 26.953125 12.707031 26.902344 C 12.871094 26.851562 13.097656 27.117188 13.210938 27.496094 " fill-opacity="1" fill-rule="nonzero"/><path fill="#dd2529" d="M 9.886719 25.359375 C 9.984375 25.96875 9.828125 26.503906 9.539062 26.550781 C 9.246094 26.601562 8.929688 26.144531 8.832031 25.535156 C 8.730469 24.925781 8.886719 24.390625 9.179688 24.34375 C 9.472656 24.292969 9.789062 24.75 9.886719 25.359375 " fill-opacity="1" fill-rule="nonzero"/><path fill="#f4d1b1" d="M 9.578125 25.089844 C 9.691406 25.46875 9.648438 25.816406 9.484375 25.867188 C 9.320312 25.917969 9.09375 25.652344 8.980469 25.273438 C 8.867188 24.894531 8.910156 24.546875 9.074219 24.496094 C 9.238281 24.445312 9.464844 24.710938 9.578125 25.089844 " fill-opacity="1" fill-rule="nonzero"/><path fill="#dd2529" d="M 18.894531 28.449219 C 18.996094 29.058594 18.839844 29.59375 18.546875 29.640625 C 18.253906 29.691406 17.9375 29.234375 17.839844 28.625 C 17.738281 28.015625 17.894531 27.480469 18.1875 27.433594 C 18.480469 27.382812 18.796875 27.839844 18.894531 28.449219 " fill-opacity="1" fill-rule="nonzero"/><path fill="#f4d1b1" d="M 18.585938 28.179688 C 18.699219 28.558594 18.65625 28.90625 18.492188 28.957031 C 18.328125 29.007812 18.101562 28.742188 17.988281 28.363281 C 17.875 27.984375 17.917969 27.636719 18.082031 27.585938 C 18.25 27.535156 18.472656 27.800781 18.585938 28.179688 " fill-opacity="1" fill-rule="nonzero"/><path fill="#dd2529" d="M 24.773438 26.765625 C 24.75 27.386719 24.488281 27.875 24.195312 27.863281 C 23.898438 27.851562 23.679688 27.339844 23.703125 26.722656 C 23.730469 26.105469 23.992188 25.613281 24.285156 25.625 C 24.582031 25.636719 24.800781 26.148438 24.773438 26.765625 " fill-opacity="1" fill-rule="nonzero"/><path fill="#f4d1b1" d="M 24.527344 26.441406 C 24.5625 26.832031 24.449219 27.164062 24.277344 27.179688 C 24.105469 27.195312 23.9375 26.890625 23.90625 26.496094 C 23.871094 26.101562 23.980469 25.769531 24.152344 25.753906 C 24.324219 25.738281 24.492188 26.046875 24.527344 26.441406 " fill-opacity="1" fill-rule="nonzero"/><path fill="#dd2529" d="M 22.40625 31.902344 C 22.378906 32.519531 22.121094 33.011719 21.824219 32.996094 C 21.527344 32.984375 21.308594 32.472656 21.335938 31.855469 C 21.363281 31.238281 21.621094 30.746094 21.917969 30.761719 C 22.214844 30.773438 22.433594 31.285156 22.40625 31.902344 " fill-opacity="1" fill-rule="nonzero"/><path fill="#f4d1b1" d="M 22.160156 31.574219 C 22.191406 31.96875 22.082031 32.300781 21.910156 32.316406 C 21.738281 32.332031 21.570312 32.023438 21.535156 31.628906 C 21.5 31.238281 21.613281 30.90625 21.785156 30.890625 C 21.957031 30.875 22.125 31.179688 22.160156 31.574219 " fill-opacity="1" fill-rule="nonzero"/><path fill="#dd2529" d="M 16.949219 32.308594 C 17 32.921875 16.804688 33.445312 16.507812 33.46875 C 16.214844 33.496094 15.933594 33.015625 15.878906 32.398438 C 15.828125 31.785156 16.023438 31.265625 16.320312 31.238281 C 16.613281 31.210938 16.894531 31.691406 16.949219 32.308594 " fill-opacity="1" fill-rule="nonzero"/><path fill="#f4d1b1" d="M 16.660156 32.015625 C 16.742188 32.402344 16.675781 32.746094 16.507812 32.78125 C 16.339844 32.820312 16.132812 32.535156 16.050781 32.152344 C 15.964844 31.765625 16.035156 31.421875 16.203125 31.382812 C 16.371094 31.347656 16.578125 31.628906 16.660156 32.015625 " fill-opacity="1" fill-rule="nonzero"/><path fill="#4fa036" d="M 21.289062 10.996094 C 20.695312 10.171875 19.574219 8.589844 18.210938 9.003906 C 18.210938 9.003906 15.109375 11.347656 13.648438 12.503906 C 13.648438 12.507812 13.644531 12.507812 13.640625 12.507812 C 14.402344 11.929688 15.132812 11.425781 15.570312 11.25 C 16.820312 10.742188 18.210938 9.730469 18.210938 9.730469 C 18.210938 9.730469 20.070312 10.742188 21.566406 11.882812 C 22.175781 12.34375 22.90625 12.804688 23.574219 13.238281 C 23.574219 13.238281 21.882812 11.820312 21.289062 10.996094 " fill-opacity="1" fill-rule="nonzero"/><path fill="#4fa036" d="M 23.191406 8.84375 L 24.941406 10.832031 C 24.121094 9.632812 23.191406 8.84375 23.191406 8.84375 " fill-opacity="1" fill-rule="nonzero"/><path fill="#4fa036" d="M 31.492188 12.617188 C 31.492188 12.617188 31.492188 12.601562 31.488281 12.59375 C 30.640625 12.289062 29.601562 11.75 29.285156 11.25 C 28.8125 10.511719 27.878906 9.855469 26.347656 9.222656 C 24.816406 8.589844 23.191406 8.84375 23.191406 8.84375 C 23.191406 8.84375 27.566406 9.730469 28.941406 11.25 C 30.3125 12.769531 31.492188 12.617188 31.492188 12.617188 " fill-opacity="1" fill-rule="nonzero"/><path fill="#4fa036" d="M 13.695312 8.84375 C 13.695312 8.84375 10.011719 6.535156 5.949219 8.589844 C 5.949219 8.589844 10.949219 7.578125 13.695312 8.84375 " fill-opacity="1" fill-rule="nonzero"/><g fill="#000000" fill-opacity="1"><g transform="translate(18.237304, 18.873354)"><g><path d="M 0.265625 0.015625 C 0.222656 0.015625 0.191406 0.00390625 0.171875 -0.015625 C 0.148438 -0.0351562 0.140625 -0.0664062 0.140625 -0.109375 C 0.140625 -0.140625 0.148438 -0.164062 0.171875 -0.1875 C 0.191406 -0.207031 0.222656 -0.21875 0.265625 -0.21875 C 0.296875 -0.21875 0.320312 -0.207031 0.34375 -0.1875 C 0.363281 -0.164062 0.375 -0.140625 0.375 -0.109375 C 0.375 -0.0664062 0.363281 -0.0351562 0.34375 -0.015625 C 0.320312 0.00390625 0.296875 0.015625 0.265625 0.015625 Z M 0.265625 0.015625 "/></g></g></g></svg>