<svg xmlns="http://www.w3.org/2000/svg" xmlns:xlink="http://www.w3.org/1999/xlink" width="50" zoomAndPan="magnify" viewBox="0 0 37.5 37.499999" height="50" preserveAspectRatio="xMidYMid meet" version="1.0"><defs><g/><clipPath id="f48551a038"><path d="M 2.054688 14 L 25 14 L 25 35.441406 L 2.054688 35.441406 Z M 2.054688 14 " clip-rule="nonzero"/></clipPath><clipPath id="0c60165744"><path d="M 2.054688 13 L 24 13 L 24 35.441406 L 2.054688 35.441406 Z M 2.054688 13 " clip-rule="nonzero"/></clipPath><clipPath id="6a8e900b6f"><path d="M 21 4 L 34.617188 4 L 34.617188 20 L 21 20 Z M 21 4 " clip-rule="nonzero"/></clipPath></defs><g clip-path="url(#f48551a038)"><path fill="#e76324" d="M 3.160156 34.023438 C 3.238281 33.867188 8.992188 22.902344 12.785156 18.660156 C 16.582031 14.417969 18.203125 12.742188 20.964844 15.683594 C 23.722656 18.625 25.851562 20.007812 22.148438 23.335938 C 18.449219 26.667969 5.054688 35.273438 3.765625 35.363281 C 2.59375 35.441406 2.699219 34.921875 3.160156 34.023438 Z M 3.160156 34.023438 " fill-opacity="1" fill-rule="nonzero"/></g><g clip-path="url(#0c60165744)"><path fill="#f47820" d="M 2.707031 33.648438 C 2.789062 33.492188 8.539062 22.53125 12.335938 18.289062 C 16.128906 14.046875 17.753906 12.367188 20.511719 15.3125 C 23.273438 18.253906 25.398438 19.636719 21.695312 22.964844 C 17.996094 26.292969 4.535156 35.167969 3.242188 35.257812 C 2.070312 35.335938 2.25 34.546875 2.707031 33.648438 Z M 2.707031 33.648438 " fill-opacity="1" fill-rule="nonzero"/></g><path fill="#75ab42" d="M 20.542969 15.332031 C 20.542969 15.332031 23.273438 13.394531 22.21875 11.1875 C 22.21875 11.1875 20.730469 11.535156 20.410156 11.242188 C 20.085938 10.945312 19.941406 10.503906 20.261719 10.226562 C 19.734375 10.179688 19.304688 9.953125 18.972656 9.539062 C 18.441406 8.878906 19.351562 8.59375 19.351562 8.59375 C 19.351562 8.59375 18.015625 8.09375 17.820312 7.261719 C 17.625 6.425781 18.742188 6.554688 18.742188 6.554688 C 18.742188 6.554688 18.210938 4.980469 18.648438 4.800781 C 19.054688 4.628906 19.828125 4.746094 20.140625 4.980469 C 20.160156 5 20.183594 5.019531 20.203125 5.039062 C 20.203125 5.039062 20.546875 4.058594 21.144531 4.46875 C 21.742188 4.882812 21.960938 5.691406 21.960938 5.691406 C 21.960938 5.691406 22.746094 5.507812 22.941406 5.839844 C 23.136719 6.167969 23.492188 6.84375 23.410156 7.21875 C 23.332031 7.59375 23.988281 7.042969 24.179688 7.222656 C 24.375 7.40625 24.925781 7.441406 24.148438 9.363281 C 23.375 11.285156 23.539062 10.789062 23.539062 10.789062 L 23.828125 12.921875 C 23.828125 12.921875 26.070312 11.085938 25.667969 9.132812 C 25.265625 7.183594 26.117188 6.363281 26.828125 7.457031 C 26.828125 7.457031 27.011719 4.835938 27.726562 4.859375 C 28.4375 4.882812 28.738281 5.703125 28.738281 5.703125 C 28.738281 5.703125 29.863281 2.875 30.523438 3.476562 C 30.929688 3.863281 31.140625 4.332031 31.164062 4.890625 C 31.164062 4.890625 32.542969 3.429688 33.28125 4.25 L 21.296875 16.128906 Z M 20.542969 15.332031 " fill-opacity="1" fill-rule="nonzero"/><g clip-path="url(#6a8e900b6f)"><path fill="#4a8b40" d="M 22.03125 16.835938 C 22.03125 16.835938 23.988281 14.128906 26.210938 15.171875 C 26.210938 15.171875 25.859375 16.648438 26.160156 16.96875 C 26.460938 17.289062 26.902344 17.433594 27.179688 17.117188 C 27.226562 17.640625 27.457031 18.066406 27.875 18.394531 C 28.539062 18.917969 28.828125 18.019531 28.828125 18.019531 C 28.828125 18.019531 29.335938 19.339844 30.171875 19.535156 C 31.011719 19.730469 30.886719 18.625 30.886719 18.625 C 30.886719 18.625 32.472656 19.148438 32.65625 18.714844 C 32.828125 18.3125 32.710938 17.546875 32.472656 17.238281 C 32.453125 17.214844 32.433594 17.195312 32.414062 17.175781 C 32.414062 17.175781 33.402344 16.832031 32.988281 16.238281 C 32.574219 15.648438 31.757812 15.429688 31.757812 15.429688 C 31.757812 15.429688 31.941406 14.65625 31.609375 14.460938 C 31.273438 14.265625 30.59375 13.914062 30.214844 13.992188 C 29.835938 14.070312 30.394531 13.421875 30.210938 13.226562 C 30.027344 13.035156 29.992188 12.488281 28.054688 13.257812 C 26.117188 14.027344 26.617188 13.863281 26.617188 13.863281 L 24.46875 13.585938 C 24.46875 13.585938 26.320312 11.359375 28.289062 11.757812 C 30.253906 12.160156 31.082031 11.316406 29.976562 10.609375 C 29.976562 10.609375 32.625 10.425781 32.601562 9.71875 C 32.578125 9.011719 31.75 8.714844 31.75 8.714844 C 31.75 8.714844 34.601562 7.597656 33.992188 6.949219 C 33.605469 6.542969 33.128906 6.328125 32.566406 6.308594 C 32.566406 6.308594 34.039062 4.941406 33.210938 4.210938 L 21.226562 16.089844 Z M 22.03125 16.835938 " fill-opacity="1" fill-rule="nonzero"/></g><path fill="#d35127" d="M 14.425781 16.015625 C 14.425781 16.015625 14.527344 17.023438 15.734375 18.132812 C 16.941406 19.242188 16.925781 19.175781 16.925781 19.175781 C 16.925781 19.175781 13.703125 18.4375 13.179688 17.347656 Z M 14.425781 16.015625 " fill-opacity="1" fill-rule="nonzero"/><path fill="#d35127" d="M 9.59375 21.9375 C 9.59375 21.9375 9.851562 22.914062 11.21875 23.828125 C 12.585938 24.738281 12.558594 24.671875 12.558594 24.671875 C 12.558594 24.671875 9.261719 24.4375 8.570312 23.445312 Z M 9.59375 21.9375 " fill-opacity="1" fill-rule="nonzero"/><path fill="#d35127" d="M 19.183594 25.628906 C 19.183594 25.628906 18.179688 25.34375 17.261719 23.988281 C 16.34375 22.632812 16.40625 22.660156 16.40625 22.660156 C 16.40625 22.660156 16.722656 26.03125 17.726562 26.710938 Z M 19.183594 25.628906 " fill-opacity="1" fill-rule="nonzero"/><path fill="#d35127" d="M 13.203125 29.789062 C 13.203125 29.789062 12.210938 29.539062 11.484375 28.4375 C 10.753906 27.339844 10.8125 27.359375 10.8125 27.359375 C 10.8125 27.359375 10.789062 30.269531 11.660156 30.773438 Z M 13.203125 29.789062 " fill-opacity="1" fill-rule="nonzero"/><path fill="#d35127" d="M 5.871094 27.9375 C 5.871094 27.9375 6.097656 28.730469 7.050781 29.359375 C 8.003906 29.988281 7.988281 29.941406 7.988281 29.941406 C 7.988281 29.941406 5.601562 29.90625 5.144531 29.183594 Z M 5.871094 27.9375 " fill-opacity="1" fill-rule="nonzero"/><g fill="#000000" fill-opacity="1"><g transform="translate(18.237304, 18.873354)"><g><path d="M 0.265625 0.015625 C 0.222656 0.015625 0.191406 0.00390625 0.171875 -0.015625 C 0.148438 -0.0351562 0.140625 -0.0664062 0.140625 -0.109375 C 0.140625 -0.140625 0.148438 -0.164062 0.171875 -0.1875 C 0.191406 -0.207031 0.222656 -0.21875 0.265625 -0.21875 C 0.296875 -0.21875 0.320312 -0.207031 0.34375 -0.1875 C 0.363281 -0.164062 0.375 -0.140625 0.375 -0.109375 C 0.375 -0.0664062 0.363281 -0.0351562 0.34375 -0.015625 C 0.320312 0.00390625 0.296875 0.015625 0.265625 0.015625 Z M 0.265625 0.015625 "/></g></g></g></svg>